<?xml version="1.0" encoding="UTF-8"?><svg id="Layer_0_Image" data-name="Layer 0 Image" xmlns="http://www.w3.org/2000/svg" viewBox="0 0 800 600" x="0px" y="0px" width="800px" height="600px" version="1.1" xmlns:xlink="http://www.w3.org/1999/xlink"><title>1</title><path d="M327.06,297.823c.471,22.619-6.338,39.268-15.558,54.9-6.462,10.957-17.015,16.439-29.745,17.089-10.839.553-21.515-.291-31.854-4.222-7.793-2.963-12.961-8.685-17.273-15.29-8.017-12.28-17.43-24.108-17.755-39.724-.406-19.5,3.611-37.841,16.491-53.237,5.452-6.518,11.925-10.893,21.328-9.428,9.33,1.455,13.1,12.819,13.026,19.627-.032,3.152-2.662,4.738-4.214,6.589-7.063,8.422-8.5,18.961-11.837,28.791-.686,2.023.708,2.581,2.259,2.918,10.063,2.187,19.2,1.542,26.046-7.634,3.628-4.862,7.554-9.473,9.952-15.139a10.44,10.44,0,0,0,.193-8.036c-1.186-3.4-3.584-7.586,2.395-9.446,1.222-.38.972-1.421.4-2.416-2.507-4.355-1.059-8.595,3.665-10.892,9.57-4.651,24.441,3.848,25.365,14.469a7.087,7.087,0,0,0,.762,3.278C327.346,279.7,326.046,290.978,327.06,297.823Zm-55.1,67.25a26.211,26.211,0,0,0,19.714-2.968C284.85,361.279,278.474,363.689,271.957,365.073Z"/><path d="M428.411,191.569c-2.287,1.98-5.465,1-6.816,3.833,1.784,1.363,3.424-.534,4.976-.2,2.169.472,6.618-.292,3.1,4.354-.26.343-.867.688-.13,1.052,6.09,3.007,1.53,6.875.575,10.149-1,3.421-2.529,6.7-2.609,10.324-.113,5.072-.162,10.148-.094,15.22.084,6.221,1.05,7.022,7.22,6.435,10.642-1.012,18.111-8.681,17.852-19.347-.213-8.744,1.525-17.109,3.494-25.453,1.014-4.3,3.713-7.746,8.491-8.568,5.624-.967,13.785,2.492,15.882,7.487,3.527,8.4,6.705,17.09,7.954,26.117,2.466,17.824,1.958,35.605-3.036,53.074-1.951,6.824-4.614,13.475-8.736,19.106-5.419,7.4-13.558,10.734-22.636,11.682-11.472,1.2-22.523.823-32.111-7-2.1-1.715-3.428-3.956-4.857-5.934-9.418-13.033-20.7-25.276-22.933-42.076-2.571-19.343.4-37.9,10.372-54.94,3.459-5.914,8.188-10.354,15.845-9.49C423.339,187.75,426.25,188.679,428.411,191.569ZM458.546,300.29a26.727,26.727,0,0,0-15.81,1.888C448.167,302.86,453.576,303.467,458.546,300.29Z"/><path d="M444.516,400.777a74.437,74.437,0,0,1-15.441,47.943,30.98,30.98,0,0,1-18.344,11.555,54.974,54.974,0,0,1-36.864-4.069c-6.873-3.322-11.264-8.981-15.752-14.959-8.341-11.112-12.461-23.954-15.926-36.931-3.963-14.849-1.163-29.164,5.682-42.972,2.352-4.746,3.962-9.524,8.841-12.367,3.716-2.165,7.261-1.227,10.828.073.855.312,2.185,1.33,2.115,1.868-1,7.61,5.49,13.968,3.519,21.729-.763,3.006-1.18,6.106-1.66,9.177-1.334,8.534,3.311,14.83,12.076,15.782,8.533.927,16.02-1.678,21.284-8.661a51.542,51.542,0,0,0,9.111-19.344c1.381-5.888,6.023-9.055,12.024-8.157,9.973,1.492,12.452,4.166,13.521,14.556a3.76,3.76,0,0,0,.4,1.889C445.185,384.178,443.577,391.871,444.516,400.777Zm-56.171,54.668c5.144,2.614,13.9,2.331,18.07-.393C400.412,454.719,394.678,454.285,388.345,455.445Z"/><path d="M574.933,149.991c7.352,2.288,1.525,6.6,1.552,9.89.013,1.612-1.852,3.436-.09,5.143,1.717,1.664,3.887,1.538,5.988.7,9.37-3.756,14.44-11.323,16.417-20.617,1.452-6.829,3.842-13.353,5.3-20.158,1.306-6.108,7.535-9.342,13.678-7.952,7.34,1.662,11.931,5.668,12.947,13.4,1.209,9.19,3.8,18.065,3.528,27.608-.639,22.2-6.921,42.131-20.7,59.611-12.853,16.305-37.49,17.016-50.72.9-4.291-5.227-8.268-11.226-9.045-18.51a8.921,8.921,0,0,0-1.612-3.467c-11.3-17.935-10.136-36.434-1.758-54.823,5.734-12.586,15.592-11.979,23.611-5.983,1,.75,2.388,1.645,2.157,3.079-.3,1.842-2.139.926-3.263,1.309-1.07.364-2.549.41-2.367,1.93.19,1.587,1.7,1.115,2.779,1.228,1.966.205,4.035.335,4.791,2.654C578.937,148.428,576.1,148.435,574.933,149.991Zm6.895,74.138c3.423.841,6.839,2.216,10-.332C588.448,223.457,585.076,222.6,581.828,224.129Z"/><path d="M249,487.627c2.848,1.694,3.413-1.815,6.421-1.667a23.287,23.287,0,0,0-7.994,11c-1.048,2.877-5.414,4.629-8.2,5.992-9.867,4.833-20.5,8.051-31.636,8.365-3.37.095-6.623-2.019-10.164-2.261a2.182,2.182,0,0,1-2.051-2.346c.02-.343.627-.974.878-.934,2.036.325,3.463.157,2.459-2.467-.448-1.172-.284-2.8-1.847-3.235-2.742-.769-.59,3.125-2.7,2.944-2.015,1.71.618-6.7-3.039-1.317-.23-.184-.575-.321-.674-.56-2.173-5.235-7.265-8.149-10.1-13.053-2.7-4.672-6.161-8.9-8.2-14.03-6.122-15.415-8.06-31.28-4.994-47.591,1.6-8.484,6.98-11.939,14.75-10.432a7.55,7.55,0,0,1,5.776,4.117c4,8.581,10.041,16.57,6.905,27.163-.97,3.278.89,6.779,3.223,9.458,1.44,1.655,3.2,2.639,5.636,1.4,4.656-2.376,9.282-4.651,12.576-9,2.353-3.105,5.155-5.866,7.66-8.861,3.459-4.135,4.4-9.385,4.791-14.355.589-7.578,5.471-11.131,12.544-7.938,2.876,1.3,5.678,3.237,6.891,6.075,3.206,7.5,6.854,14.708,8.585,22.969a92.248,92.248,0,0,1,1.762,23.975c-.179,3.507-2.431,6.563-2.119,10.237.058.68-1.516,2.085-2.412,2.152C250.836,483.636,250.658,486.212,249,487.627ZM225.855,501.62c-3.841-1.189-8.222,3.429-10.571-2.576-.011,2.594-1.534,6.441,1.485,6.286C219.525,505.189,223.673,505.43,225.855,501.62Zm6.311-19.9c-1.075,1.589-.4,3,1.2,3.157,2.515.248.956-1.623,1.041-2.689.122-1.519.831-.555,1.586-.414,1.661.311,1.525-1.236.846-1.682a6.564,6.564,0,0,0-3.978-1.2C231.352,479.064,231.763,480.554,232.166,481.72Z"/><path d="M574.382,305.657c2.557,1.087,4.715,2.422,5.109,5.014.306,2.015-2.042.981-3.177,2.3,5.422.124,4.348,4.891,3.773,6.868-1.514,5.214.406,10.195-.205,15.289-.4,3.347-1.171,6.736-1.449,10.121-.288,3.511-2.638-1.327-4.463-1.074-.958,1.044-.887,2.141.339,2.764,1.258.639,3.494.511,3.317,2.284-.216,2.155-.84,5.462-2.245,6.075-3.785,1.651-2.907,5.407-2.675,7.145.5,3.751-1.21,3.292-3.2,2.727-2.881-.815-4.611.1-5.19,2.9-.739,3.567-4.747,2.98-6.537,5.491-1.756,2.462-4.508,4.2-4.268,7.885-4.95-.592-2.661-4.955-4.626-7.6-.7,8.648-7.09,8.5-12.876,9.143-1.922.214-4.1-.524-5.791.132-3.541,1.375-3.282-.339-2.385-3.569-1.977,3.849-3.8,5.159-6.579,1.96-1.008-1.16-2.676-.981-4.1-1.3-2.632-.589-2.952-1.2-2.882-4.589.019-.953-.585-.857-1.17-1.125-6.034-2.763-8.654-7.816-8.7-14.432-.021-3.15,1.268-8.173-4.952-7.845-.856.045-1.028-.608-1.3-1.193-5.71-12.152-3.851-23.833,2.572-35.012,2.963-5.157,10.551-7.725,16.318-5.7a8.863,8.863,0,0,1,4.713,4.256c.8,1.783-1.207,2.495-3.038,2.73-1.422.183-.982,1.4-.678,2.341.507,1.565,1.566,1.971,3.063,1.417,3.643-1.35,4.463-.745,4.037,3.572-.312,3.163,4.195,4.422,6.718,6.135,1.71,1.161,2.62-1.327,3.125-2.756a3.749,3.749,0,0,1,1.754-2.226c7.982-4.088,8.859-11.914,10.1-19.424.581-3.523.67-7.32,1.352-10.65.692-3.379,1.76-6.918,2.642-10.4,1.414-5.583,6.013-5.76,10.419-5.512a39.577,39.577,0,0,1,8.448,1.939c.673.193,1.68,1.167,1.619,1.671-.534,4.393,4.61,7.53,2.5,12.458-.533,1.246,1.172,3.727,2.284,5.34C578.2,304.269,578.278,304.366,574.382,305.657Zm-39.789,50.788c-1.991-.028-4.312.036-4.633,2.755-.377,3.2,2.571,1.756,4.031,2.454,1.81.866,3.418-.845,4.919-.325,1.637.568,2.63.089,3.224-1.117.862-1.753-.752-3.017-1.474-4.332-.763-1.387-2.038-.35-2.959.14C536.757,356.522,536.056,357.751,534.593,356.445Zm10.465,19.918c-1.871-1.765-4.957-.526-5.917-1.736-3.348-4.218-5.6.973-8.424.647-.5-.057-2.394,1.776-1.849,3.05.555,1.3,2.969,2.3,3.669,1.7C536.144,376.934,541.04,378.763,545.058,376.363Zm-7.736-36.774c-2.98,3.072-3.858,3.368-4.861,1.413-1.358-2.647-5.236-3.549-7.237-1.632a2.541,2.541,0,0,0-.143,3.806C526.734,344.882,536.414,342.123,537.322,339.589Z"/><path d="M344.993,154.977c3.711-.692,5.523-2.9,7.607-4.594,4.039-3.288,7.34-2.24,8.535,3.054.518,2.3.647,3.575,3.77,4.212,3.08.628,3.768,5.029,5.165,7.891a55.9,55.9,0,0,1,5.406,28.072c-.744,13.01-7.218,22.77-17.86,30.023-4.879,3.325-9.9,5.287-16.046,4.561-2.928-.345-4.612-2.213-6.868-3.333-7.76-3.854-15.772-7.19-23.015-12.092-7.793-5.275-16.863-25.024-13.063-35.495,2.435-6.711,6.542-10.756,13.363-12.177,3.921-.816,5.717.812,6,5.611A8.843,8.843,0,0,0,321.7,165.2a74.875,74.875,0,0,1,5.915-15.565c3.012-5.929,8.013-8.826,14.174-10.279,2.417-.57,4.829-.269,6.3,1.663,1.427,1.875,1.305,4.142.007,6.412C346.9,149.523,346.224,151.913,344.993,154.977ZM360.564,214.3c-3.99,1.805-6.8,3.848-8.476,7.195C354.827,219.371,359.408,219.369,360.564,214.3Z"/><path d="M457.771,111.94c3.048-6.911,4.429-14.046,9.809-19.085a11.754,11.754,0,0,1,2.515-2.249c2.319-1.121,5.261-2.937,7.267-1.207,1.739,1.5,1.452,4.669.566,7.249-.425,1.238-2.008,2.94-.192,3.853,1.535.772,2.415-1.218,3.4-2.241.565-.59.987-1.325,1.581-1.879,1.108-1.033,1.642-3.272,3.729-2.447a4.852,4.852,0,0,1,3.376,3.9c.227,1.9.21,3.659,3.162,2.374,1.5-.652,2.549,1.3,3.363,2.4,8.988,12.151,10.848,24.725-.834,37.109-3.571,3.785-7.241,7.476-10.86,11.216-1.99,2.057-4.407,2.03-6.82,1.174-2.723-.966.213-3.177-1-4.946-2.771,4.452-5.437,3.861-8.981.65-2.2-1.99-4.83-4.477-8.963-2.812-1.522.614-4.418-1.078-6.195-2.387-8.9-6.551-14.262-15.225-14.475-26.511-.084-4.476,1.385-8.445,5.912-10.461a7.489,7.489,0,0,1,2.686-.68C448.887,109.627,454.936,107.761,457.771,111.94Z"/></svg>